<?xml version="1.0" encoding="utf-8"?>
<!-- Generator: Adobe Illustrator 12.0.1, SVG Export Plug-In . SVG Version: 6.00 Build 51448)  -->
<!DOCTYPE svg PUBLIC "-//W3C//DTD SVG 1.0//EN" "http://www.w3.org/TR/2001/REC-SVG-20010904/DTD/svg10.dtd" [
	<!ENTITY ns_svg "http://www.w3.org/2000/svg">
	<!ENTITY ns_xlink "http://www.w3.org/1999/xlink">
]>
<svg  version="1.0" id="Layer_1" xmlns="&ns_svg;" xmlns:xlink="&ns_xlink;" width="444.7421875" height="161.9238281"
	 viewBox="0 0 444.7421875 161.9238281" overflow="visible" enable-background="new 0 0 444.7421875 161.9238281"
	 xml:space="preserve">
<path fill="#AB0534" d="M80.5664063,59.7382813c0-4.4570313-0.375-7.3710938-1.1132813-8.7617188
	c-0.7421875-1.3945313-2.4453125-2.0898438-5.1015625-2.0898438c-1.875,0-3.9921875,0.5742188-6.3632813,1.7226563
	C65.625,51.7460938,63.359375,53.3085938,61.1875,55.28125v54.7285156H42.2773438v-49.40625
	c0-4.7363281-0.453125-7.8808594-1.3515625-9.4238281c-0.8984375-1.5234375-2.7460938-2.2929688-5.5390625-2.2929688
	c-1.8984375,0-4.0234375,0.4765625-6.3671875,1.4140625c-2.3476563,0.9296875-4.6171875,2.40625-6.8164063,4.375v55.3339844
	H2.8320313V56.90625c0-2.765625-0.0507813-5.1757813-0.15625-7.2109375C2.578125,47.6640625,2.4335938,45.90625,2.234375,44.421875
	c-0.203125-1.5039063-0.46875-2.8125-0.8203125-3.9453125C1.0703125,39.34375,0.5976563,38.3203125,0,37.4257813l18-4.90625
	c0.6914063,1.0820313,1.2148438,2.15625,1.5625,3.1953125c0.3398438,1.0429688,0.71875,2.5546875,1.109375,4.5429688
	c5.2578125-5.1601563,11.453125-7.7382813,18.59375-7.7382813c6.2421875,0,11.3984375,2.0742188,15.4609375,6.2382813
	c0.5039063,0.5,0.9921875,1.046875,1.4921875,1.6445313c0.4960938,0.5859375,0.9882813,1.2851563,1.4882813,2.078125
	c3.4648438-3.5664063,6.890625-6.1132813,10.2578125-7.6679688c3.375-1.5390625,7.140625-2.2929688,11.3085938-2.2929688
	c2.96875,0,5.796875,0.4140625,8.46875,1.2578125c2.6796875,0.8398438,4.8632813,2.0117188,6.546875,3.5
	c2.1757813,1.6875,3.671875,3.90625,4.4609375,6.6914063c0.7929688,2.7695313,1.1914063,6.7382813,1.1914063,11.8984375v54.1425781
	h-19.375V59.7382813z"/>
<path fill="#AB0534" d="M178.1953125,88.4003906c-1.5390625,4.671875-3.9375,8.890625-7.1992188,12.6640625
	c-2.875,3.2734375-6.2890625,5.84375-10.25,7.734375c-3.953125,1.8828125-8.90625,2.828125-14.84375,2.828125
	c-5.1445313,0-9.8242188-0.9453125-14.03125-2.828125c-4.203125-1.890625-7.7929688-4.5390625-10.7578125-7.9609375
	c-2.96875-3.4296875-5.2773438-7.5703125-6.9101563-12.4375c-1.6289063-4.859375-2.4453125-10.265625-2.4453125-16.2265625
	c0-5.953125,0.8164063-11.375,2.4453125-16.2910156c1.6328125-4.9179688,3.9414063-9.1445313,6.9101563-12.6601563
	c2.9648438-3.515625,6.5546875-6.2226563,10.7578125-8.1054688c4.2070313-1.890625,8.8867188-2.8320313,14.03125-2.8320313
	c10.78125,0,19.4023438,3.8203125,25.8359375,11.4648438c3.0625,3.5742188,5.2929688,7.5429688,6.6757813,11.9140625
	c1.3828125,4.3554688,2.078125,9.6660156,2.078125,15.9238281
	C180.4921875,78.1347656,179.7265625,83.7519531,178.1953125,88.4003906z M154.8085938,51.2695313
	c-2.078125-2.6640625-4.9453125-3.9960938-8.6015625-3.9960938c-2.375,0-4.4765625,0.6835938-6.3007813,2.0820313
	c-1.8359375,1.375-3.1367188,3.2421875-3.9296875,5.6132813c-0.6914063,1.9648438-1.2070313,4.3320313-1.5585938,7.0878906
	c-0.34375,2.7578125-0.515625,6.015625-0.515625,9.7578125c0,8.578125,0.8398438,14.9296875,2.515625,19.078125
	c0.890625,2.0625,2.3046875,3.625,4.2265625,4.65625c1.9296875,1.03125,3.8789063,1.5625,5.859375,1.5625
	c4.4453125,0,7.6132813-2.03125,9.4882813-6.0859375c1.8789063-4.0234375,2.8203125-10.53125,2.8203125-19.5
	C158.8125,61.4628906,157.4765625,54.7265625,154.8085938,51.2695313z"/>
<path fill="#AB0534" d="M189.40625,110.0097656v-12.265625l35.8710938-49.5527344h-32.875v-14.0625h56.515625v13.5664063
	l-33.625,48.2519531h35.0039063l-4.765625,14.0625H189.40625z"/>
<path fill="#AB0534" d="M282.5195313,21.5703125c-2.3710938,2.3632813-5.2890625,3.5664063-8.7460938,3.5664063
	c-3.359375,0-6.21875-1.203125-8.59375-3.5664063c-2.3671875-2.3828125-3.5585938-5.3007813-3.5585938-8.7773438
	c0-3.46875,1.2070313-6.3984375,3.6328125-8.78125c2.421875-2.3789063,5.3671875-3.5625,8.8203125-3.5625
	c3.3515625,0,6.1992188,1.1835938,8.5195313,3.5625c2.3203125,2.3828125,3.4765625,5.3125,3.4765625,8.78125
	C286.0703125,16.2695313,284.8867188,19.1875,282.5195313,21.5703125z M263.6953125,35.1796875l20.0703125-3.140625v77.9707031
	h-20.0703125V35.1796875z"/>
<path fill="#AB0534" d="M318.9140625,111.8535156c-4.1992188,0-7.859375-0.9453125-10.984375-2.8203125
	c-3.125-1.8828125-5.2734375-4.40625-6.4414063-7.578125c-0.3945313-1.0078125-0.6875-1.9375-0.8828125-2.8359375
	c-0.1914063-0.890625-0.3710938-1.9296875-0.5078125-3.125c-0.1484375-1.1875-0.2539063-2.671875-0.3046875-4.46875
	c-0.046875-1.78125-0.0625-4.0078125-0.0625-6.6875V27.5117188c0-5.0625-0.0820313-9.2773438-0.2304688-12.6445313
	c-0.1445313-3.3710938-0.4179688-6.7890625-0.8125-10.2695313L318.7734375,0
	c0.3867188,2.0742188,0.6484375,4.5507813,0.796875,7.4296875c0.1445313,2.8828125,0.2226563,6.984375,0.2226563,12.34375
	v59.3691406c0,3.265625,0.0195313,5.890625,0.0703125,7.875c0.046875,1.984375,0.1054688,3.5703125,0.1601563,4.75
	c0.0507813,1.203125,0.171875,2.0859375,0.3671875,2.6875c0.1953125,0.5859375,0.4453125,1.140625,0.7421875,1.640625
	c0.796875,1.390625,2.1367188,2.0859375,4.0195313,2.0859375h1.0390625c0.1953125,0,0.59375-0.109375,1.1914063-0.3046875
	l3.4179688,11.8984375C327.1289063,111.1738281,323.1679688,111.8535156,318.9140625,111.8535156z"/>
<path fill="#AB0534" d="M359.2460938,111.8535156c-4.1992188,0-7.8710938-0.9453125-10.984375-2.8203125
	c-3.1367188-1.8828125-5.2734375-4.40625-6.4453125-7.578125c-0.390625-1.0078125-0.6835938-1.9375-0.8789063-2.8359375
	c-0.1953125-0.890625-0.3710938-1.9296875-0.5195313-3.125c-0.1445313-1.1875-0.2421875-2.671875-0.2929688-4.46875
	c-0.046875-1.78125-0.0664063-4.0078125-0.0664063-6.6875V27.5117188c0-5.0625-0.078125-9.2773438-0.2304688-12.6445313
	c-0.1523438-3.3710938-0.4179688-6.7890625-0.8085938-10.2695313L359.1015625,0
	c0.390625,2.0742188,0.6523438,4.5507813,0.8007813,7.4296875C360.046875,10.3125,360.125,14.4140625,360.125,19.7734375v59.3691406
	c0,3.265625,0.015625,5.890625,0.0664063,7.875s0.1015625,3.5703125,0.1484375,4.75
	c0.0507813,1.203125,0.1757813,2.0859375,0.3789063,2.6875c0.1992188,0.5859375,0.4414063,1.140625,0.734375,1.640625
	c0.7929688,1.390625,2.140625,2.0859375,4.0234375,2.0859375h1.046875c0.1953125,0,0.5898438-0.109375,1.1796875-0.3046875
	l3.4257813,11.8984375C367.4609375,111.1738281,363.4960938,111.8535156,359.2460938,111.8535156z"/>
<path fill="#AB0534" d="M427.7851563,109.9628906c-1.953125-1.59375-3.421875-3.359375-4.4140625-5.3515625
	c-0.8085938,0.796875-1.5742188,1.5390625-2.328125,2.234375c-0.7460938,0.6796875-1.5195313,1.28125-2.3242188,1.7890625
	c-3.7929688,2.765625-8.9335938,4.1484375-15.4296875,4.1484375c-8.6914063,0-15.2578125-2.03125-19.703125-6.0859375
	c-4.4414063-4.0390625-6.6640625-9.921875-6.6640625-17.6484375c0-8.984375,3.078125-15.5703125,9.2304688-19.7734375
	c6.1445313-4.2109375,15.4765625-6.3125,27.9804688-6.3125h2.265625c1.015625,0,1.765625,0.046875,2.2734375,0.1484375V59.984375
	c0-4.2734375-0.5742188-7.2265625-1.7109375-8.8632813c-1.140625-1.6484375-3.5429688-2.4648438-7.2109375-2.4648438
	c-3.1835938,0-6.6015625,0.7578125-10.2695313,2.2304688c-3.6679688,1.5039063-7.59375,3.6289063-11.7539063,6.4101563
	l-8.484375-14.3046875c1.9921875-1.2851563,3.8671875-2.3671875,5.6523438-3.2578125
	c1.7929688-0.90625,4.0195313-1.8828125,6.6992188-2.9765625c3.7695313-1.59375,7.3164063-2.734375,10.6367188-3.4335938
	c3.328125-0.6835938,6.7226563-1.0390625,10.1914063-1.0390625c6.5117188,0,11.828125,1.1367188,15.9414063,3.40625
	c4.1015625,2.2851563,6.8945313,5.5585938,8.359375,9.8046875c0.4882813,1.09375,0.828125,2.2578125,1.0234375,3.4882813
	c0.1953125,1.25,0.2929688,2.9101563,0.2929688,4.9804688v5.203125l-0.4375,25.5449219
	c0,2.09375,0.0390625,3.8828125,0.1445313,5.421875c0.0976563,1.5234375,0.390625,2.9375,0.8945313,4.2421875
	c0.5039063,1.2734375,1.2148438,2.484375,2.1640625,3.6171875c0.9414063,1.1484375,2.2578125,2.359375,3.9375,3.65625
	l-10.5898438,12.1796875C431.859375,112.8300781,429.7304688,111.5488281,427.7851563,109.9628906z M402.7539063,79.3222656
	c-2.7695313,1.5234375-4.1523438,4.4765625-4.1523438,8.8671875c0,2.875,0.8320313,5.1796875,2.4921875,6.953125
	s3.7929688,2.6484375,6.4179688,2.6484375c4.015625,0,7.546875-1.671875,10.5585938-5.0078125l0.3085938-15.7578125H417.46875
	C410.4335938,77.0253906,405.5195313,77.7910156,402.7539063,79.3222656z"/>
<g>
	<path fill="#AB0534" d="M15.1875,161.9238281c-4.2578125,0-7.5351563-1.375-10.0585938-4.2578125
		c-2.4804688-2.78125-3.7226563-6.5078125-3.7226563-11.0234375c0-3.859375,0.6640625-6.90625,2.0859375-9.5703125
		c2.3945313-4.4765625,6.8203125-7.1328125,11.78125-7.1328125c3.0546875,0,6.1132813,0.9765625,7.8007813,2.4375
		l-2.7929688,4.203125c-1.5546875-1.140625-3.1914063-1.7265625-4.9179688-1.7265625
		c-2.0820313,0-4.1210938,1.0234375-5.2304688,2.65625c-1.1953125,1.7734375-1.7226563,4.34375-1.7226563,7.9375
		c0,4.203125,0.3515625,6.5546875,1.2851563,8.234375c1.234375,2.265625,3.2734375,3.453125,5.9296875,3.453125
		c1.8164063,0,3.4570313-0.53125,5.2734375-1.9921875l2.8320313,3.8984375
		C21.3007813,161.0332031,18.6835938,161.9238281,15.1875,161.9238281z"/>
	<path fill="#AB0534" d="M62.7109375,160.4550781c-1.859375,1.0234375-3.5898438,1.421875-6.15625,1.421875
		c-4.6484375,0-7.6601563-1.28125-10.0117188-4.3359375C44.1953125,154.5332031,43,150.6269531,43,146.1035156
		c0-6.640625,2.5234375-11.953125,6.953125-14.390625c1.8203125-0.9765625,4.078125-1.5078125,6.3828125-1.5078125
		c8.1914063,0,13.2460938,5.9765625,13.2460938,15.640625C69.5820313,152.7910156,67.1875,158.0253906,62.7109375,160.4550781z
		 M61.6484375,138.8925781c-0.484375-1.546875-2.125-3.90625-5.4023438-3.90625
		c-2.0859375,0-3.9023438,1.0703125-4.7851563,2.7109375c-1.0585938,1.9921875-1.546875,4.6875-1.546875,8.40625
		c0,5.3203125,0.8828125,8.640625,2.7421875,9.9765625c0.9726563,0.703125,2.21875,1.0546875,3.6796875,1.0546875
		c4.296875,0,6.1132813-3.28125,6.1132813-11.1171875C62.4492188,142.8769531,62.1835938,140.6113281,61.6484375,138.8925781z"/>
	<path fill="#AB0534" d="M105.6367188,161.3847656c-1.1953125-2.0390625-1.6835938-2.8828125-2.8828125-5.046875
		c-3.0546875-5.53125-3.984375-7.0390625-5.0898438-7.5234375c-0.3125-0.1328125-0.578125-0.2265625-0.9726563-0.2734375v12.84375
		h-6.0742188v-30.78125h11.4726563c5.4492188,0,9.0390625,3.6328125,9.0390625,9.0390625
		c0,4.6015625-3.0546875,8.4140625-6.8632813,8.5c0.6171875,0.4921875,0.8828125,0.7578125,1.28125,1.2890625
		c1.7695313,2.21875,7.3984375,11.953125,7.3984375,11.953125H105.6367188z M102.4023438,136.0097656
		c-0.7109375-0.265625-1.9960938-0.4375-3.5-0.4375h-2.2109375v8.3203125h2.078125c2.65625,0,3.8085938-0.265625,4.6484375-1.015625
		c0.7578125-0.71875,1.1992188-1.8125,1.1992188-3.1015625
		C104.6171875,137.8613281,103.8632813,136.5410156,102.4023438,136.0097656z"/>
	<path fill="#AB0534" d="M150.640625,149.0332031c-1.4140625,0.6640625-2.75,1.015625-6.15625,1.015625h-3.4101563v11.3359375
		H134.875v-30.78125h8.1054688c5.2226563,0,6.8203125,0.5390625,8.5507813,1.5078125
		c2.875,1.5859375,4.4257813,4.4296875,4.4257813,7.9765625
		C155.9570313,144.1660156,154.0117188,147.4316406,150.640625,149.0332031z M145.015625,135.6035156h-3.9414063v9.3984375h3.234375
		c2.5234375,0,3.2773438-0.3125,4.1210938-1.59375c0.5273438-0.84375,0.75-1.7265625,0.75-3.1875
		C149.1796875,137.3457031,147.6289063,135.6035156,145.015625,135.6035156z"/>
	<path fill="#AB0534" d="M192.9453125,160.4550781c-1.859375,1.0234375-3.5898438,1.421875-6.15625,1.421875
		c-4.6484375,0-7.6601563-1.28125-10.0117188-4.3359375c-2.3476563-3.0078125-3.5429688-6.9140625-3.5429688-11.4375
		c0-6.640625,2.5234375-11.953125,6.953125-14.390625c1.8203125-0.9765625,4.078125-1.5078125,6.3828125-1.5078125
		c8.1914063,0,13.2460938,5.9765625,13.2460938,15.640625C199.8164063,152.7910156,197.421875,158.0253906,192.9453125,160.4550781z
		 M191.8828125,138.8925781c-0.484375-1.546875-2.125-3.90625-5.4023438-3.90625
		c-2.0859375,0-3.9023438,1.0703125-4.7851563,2.7109375c-1.0625,1.9921875-1.5507813,4.6875-1.5507813,8.40625
		c0,5.3203125,0.8867188,8.640625,2.7460938,9.9765625c0.9726563,0.703125,2.21875,1.0546875,3.6796875,1.0546875
		c4.296875,0,6.1132813-3.28125,6.1132813-11.1171875C192.6835938,142.8769531,192.4140625,140.6113281,191.8828125,138.8925781z"/>
	<path fill="#AB0534" d="M234.9804688,161.3847656c-1.1953125-2.0390625-1.6835938-2.8828125-2.8789063-5.046875
		c-3.0585938-5.53125-3.984375-7.0390625-5.09375-7.5234375c-0.3125-0.1328125-0.5742188-0.2265625-0.9726563-0.2734375v12.84375
		h-6.0742188v-30.78125H231.4375c5.4492188,0,9.0390625,3.6328125,9.0390625,9.0390625
		c0,4.6015625-3.0585938,8.4140625-6.8671875,8.5c0.6210938,0.4921875,0.8828125,0.7578125,1.2851563,1.2890625
		c1.765625,2.21875,7.3984375,11.953125,7.3984375,11.953125H234.9804688z M231.75,136.0097656
		c-0.7148438-0.265625-1.9960938-0.4375-3.5-0.4375h-2.2148438v8.3203125h2.0820313
		c2.65625,0,3.8085938-0.265625,4.6484375-1.015625c0.7578125-0.71875,1.1953125-1.8125,1.1953125-3.1015625
		C233.9609375,137.8613281,233.2109375,136.5410156,231.75,136.0097656z"/>
	<path fill="#AB0534" d="M280.6132813,161.3847656l-2.1757813-7.3046875h-9.0351563l-2.1679688,7.3046875h-6.4726563
		l10.0976563-30.8671875h6.6914063l9.703125,30.8671875H280.6132813z M275.2460938,142.7441406
		c-0.3125-1.4140625-1.2421875-5.453125-1.2421875-5.453125s-0.8828125,3.6328125-1.4648438,5.9375
		c-0.5703125,2.21875-0.9648438,3.6875-1.6289063,5.71875h6.0195313
		C276.9296875,148.9472656,275.9101563,145.7128906,275.2460938,142.7441406z"/>
	<path fill="#AB0534" d="M325.1171875,135.7441406h-7.3476563v25.640625h-6.2851563v-25.640625h-7.53125v-5.140625h22.1914063
		L325.1171875,135.7441406z"/>
	<path fill="#AB0534" d="M346.7382813,161.3847656v-30.78125h6.4648438v30.78125H346.7382813z"/>
	<path fill="#AB0534" d="M395.734375,160.4550781c-1.8671875,1.0234375-3.5859375,1.421875-6.1640625,1.421875
		c-4.6484375,0-7.6601563-1.28125-10.0078125-4.3359375c-2.34375-3.0078125-3.5390625-6.9140625-3.5390625-11.4375
		c0-6.640625,2.5234375-11.953125,6.953125-14.390625c1.8164063-0.9765625,4.0742188-1.5078125,6.375-1.5078125
		c8.1992188,0,13.2460938,5.9765625,13.2460938,15.640625C402.5976563,152.7910156,400.2070313,158.0253906,395.734375,160.4550781z
		 M394.6679688,138.8925781c-0.4804688-1.546875-2.1210938-3.90625-5.3984375-3.90625
		c-2.0898438,0-3.9023438,1.0703125-4.7851563,2.7109375c-1.0664063,1.9921875-1.5546875,4.6875-1.5546875,8.40625
		c0,5.3203125,0.8867188,8.640625,2.7460938,9.9765625c0.9765625,0.703125,2.2148438,1.0546875,3.6757813,1.0546875
		c4.296875,0,6.1171875-3.28125,6.1171875-11.1171875C395.46875,142.8769531,395.1953125,140.6113281,394.6679688,138.8925781z"/>
	<path fill="#AB0534" d="M438.125,161.3847656l-5.2734375-11.7734375c-1.7265625-3.859375-3.5820313-8.1953125-4.1640625-10.1015625
		c0.2304688,2.5234375,0.265625,6.15625,0.3125,8.7265625l0.1757813,13.1484375h-5.9804688v-30.78125h6.8632813l5.8945313,12.3125
		c1.546875,3.28125,2.7460938,6.515625,3.3710938,8.734375c-0.2304688-2.390625-0.4453125-6.3359375-0.4882813-8.4609375
		l-0.1367188-12.5859375h5.890625v30.78125H438.125z"/>
</g>
</svg>
